<svg width="512" height="512" viewBox="0 0 512 512" fill="none" xmlns="http://www.w3.org/2000/svg">
  <defs>
    <linearGradient id="bg" x1="64" y1="64" x2="448" y2="448" gradientUnits="userSpaceOnUse">
      <stop offset="0" stop-color="#16a34a"/>
      <stop offset="1" stop-color="#0f766e"/>
    </linearGradient>
    <linearGradient id="card" x1="128" y1="160" x2="384" y2="352" gradientUnits="userSpaceOnUse">
      <stop offset="0" stop-color="#fef3c7"/>
      <stop offset="1" stop-color="#fde68a"/>
    </linearGradient>
  </defs>

  <rect width="512" height="512" rx="120" fill="url(#bg)"/>

  <rect x="92" y="148" width="328" height="216" rx="32" fill="url(#card)" opacity="0.95"/>
  <rect x="116" y="188" width="280" height="136" rx="24" fill="white" opacity="0.85"/>

  <circle cx="196" cy="256" r="64" fill="#f8fafc" stroke="#22c55e" stroke-width="10"/>
  <path d="M220 228c-4.5-8.5-14-14-26-14-16 0-28 11.2-28 26s12 26 28 26c12 0 21.5-5.5 26-14" stroke="#15803d" stroke-width="12" fill="none" stroke-linecap="round"/>
  <path d="M180 214v84" stroke="#15803d" stroke-width="12" stroke-linecap="round"/>

  <rect x="248" y="214" width="116" height="20" rx="10" fill="#22c55e" opacity="0.9"/>
  <rect x="248" y="254" width="136" height="20" rx="10" fill="#86efac" opacity="0.9"/>
  <rect x="248" y="294" width="96" height="20" rx="10" fill="#22c55e" opacity="0.8"/>

  <circle cx="368" cy="340" r="36" fill="#fcd34d" stroke="#f59e0b" stroke-width="10"/>
  <path d="M372 322h-16c-6.6 0-12 5.4-12 12s5.4 12 12 12h8c4.4 0 8 3.6 8 8s-3.6 8-8 8h-18" stroke="#92400e" stroke-width="8" stroke-linecap="round"/>
  <path d="M360 312v16m0 56v-16" stroke="#92400e" stroke-width="8" stroke-linecap="round"/>

  <circle cx="132" cy="356" r="8" fill="#bbf7d0"/>
  <circle cx="156" cy="380" r="10" fill="#bbf7d0" opacity="0.8"/>
  <circle cx="380" cy="128" r="14" fill="#86efac" opacity="0.7"/>
</svg>

